<?xml version="1.0" encoding="utf-8"?>
<!-- Generator: Adobe Illustrator 17.0.0, SVG Export Plug-In . SVG Version: 6.00 Build 0)  -->
<!DOCTYPE svg PUBLIC "-//W3C//DTD SVG 1.1//EN" "http://www.w3.org/Graphics/SVG/1.1/DTD/svg11.dtd">
<svg version="1.1" id="Capa_1" xmlns="http://www.w3.org/2000/svg" xmlns:xlink="http://www.w3.org/1999/xlink" x="0px" y="0px"
	 width="387.198px" height="104.667px" viewBox="0 15.066 387.198 104.667" enable-background="new 0 15.066 387.198 104.667"
	 xml:space="preserve">
<rect x="0" y="90.522" fill="#6D20C6" width="67.834" height="18.505"/>
<rect x="79.632" y="90.522" fill="#9A6CE5" width="67.834" height="18.505"/>
<rect x="159.263" y="90.522" fill="#999999" width="67.834" height="18.505"/>
<rect x="238.895" y="90.522" fill="#9A6CE5" width="67.834" height="18.505"/>
<rect x="318.895" y="90.522" fill="#6D20C6" width="67.834" height="18.505"/>
<g>
	<path fill="#FFFFFF" d="M4.449,57.063c-5.307,0-5.307-7.721,0-7.721C9.784,49.342,9.784,57.063,4.449,57.063z M15.853,49.52
		L4.374,67.349H2.011L13.516,49.52H15.853z M4.425,50.993c-2.972,0-2.946,4.393,0.051,4.393c2.946,0,2.921-4.393-0.026-4.393H4.425z
		 M13.516,59.806c5.333,0,5.333,7.721,0,7.721c-5.307,0-5.307-7.721,0.026-7.721H13.516z M13.516,65.875
		c2.972,0,2.946-4.444,0-4.444C10.545,61.431,10.571,65.875,13.516,65.875z"/>
	<path fill="#FFFFFF" d="M22.924,65.495V52.34L19.8,53.177v-2.032l5.333-1.575v15.924h3.226v1.854h-8.737v-1.854H22.924z"/>
	<path fill="#FFFFFF" d="M44.847,56.682v3.555c0,9.829-14.375,9.855-14.375,0v-3.555C30.473,46.828,44.847,46.853,44.847,56.682z
		 M42.638,60.212v-3.556c0-7.009-9.955-7.06-9.955,0.026v3.555C32.683,67.323,42.638,67.298,42.638,60.212z"/>
	<path fill="#FFFFFF" d="M62.28,56.682v3.555c0,9.829-14.375,9.855-14.375,0v-3.555C47.905,46.828,62.28,46.853,62.28,56.682z
		 M60.07,60.212v-3.556c0-7.009-9.955-7.06-9.955,0.026v3.555C50.115,67.323,60.07,67.298,60.07,60.212z"/>
</g>
<g>
	<path fill="#FFFFFF" d="M328.43,57.063c-5.309,0-5.309-7.721,0-7.721C333.764,49.342,333.764,57.063,328.43,57.063z M339.833,49.52
		l-11.479,17.829h-2.362l11.504-17.829H339.833z M328.405,50.993c-2.972,0-2.947,4.393,0.05,4.393c2.947,0,2.922-4.393-0.025-4.393
		H328.405z M337.496,59.806c5.333,0,5.333,7.721,0,7.721c-5.306,0-5.306-7.721,0.027-7.721H337.496z M337.496,65.875
		c2.972,0,2.947-4.444,0-4.444C334.525,61.431,334.551,65.875,337.496,65.875z"/>
	<path fill="#FFFFFF" d="M346.904,65.495V52.34l-3.123,0.838v-2.032l5.333-1.575v15.924h3.226v1.854h-8.737v-1.854H346.904z"/>
	<path fill="#FFFFFF" d="M368.828,56.682v3.555c0,9.829-14.375,9.855-14.375,0v-3.555C354.454,46.828,368.828,46.853,368.828,56.682
		z M366.618,60.212v-3.556c0-7.009-9.955-7.06-9.955,0.026v3.555C356.662,67.323,366.618,67.298,366.618,60.212z"/>
	<path fill="#FFFFFF" d="M386.259,56.682v3.555c0,9.829-14.375,9.855-14.375,0v-3.555C371.885,46.828,386.259,46.853,386.259,56.682
		z M384.051,60.212v-3.556c0-7.009-9.955-7.06-9.955,0.026v3.555C374.095,67.323,384.051,67.298,384.051,60.212z"/>
</g>
<polyline fill="none" stroke="#FFFFFF" stroke-width="2" stroke-miterlimit="10" points="300.211,46.698 312.786,59.272 
	300.211,71.06 "/>
<line fill="none" stroke="#FFFFFF" stroke-width="2" stroke-miterlimit="10" x1="312.786" y1="59.272" x2="253.876" y2="59.272"/>
<polyline fill="none" stroke="#FFFFFF" stroke-width="2" stroke-miterlimit="10" points="88.272,71.06 75.698,58.486 88.272,46.697 
	"/>
<line fill="none" stroke="#FFFFFF" stroke-width="2" stroke-miterlimit="10" x1="75.698" y1="58.486" x2="133.608" y2="58.486"/>
<g>
	<path fill="#FFFFFF" d="M146.789,56.694c-5.517,0-5.517-8.024,0-8.024C152.333,48.67,152.333,56.694,146.789,56.694z
		 M158.642,48.855L146.71,67.386h-2.455l11.958-18.531H158.642z M146.763,50.386c-3.088,0-3.062,4.566,0.053,4.566
		c3.062,0,3.036-4.566-0.026-4.566H146.763z M156.213,59.546c5.543,0,5.543,8.024,0,8.024c-5.517,0-5.517-8.024,0.026-8.024H156.213
		z M156.213,65.855c3.089,0,3.062-4.619,0-4.619C153.125,61.235,153.151,65.855,156.213,65.855z"/>
	<path fill="#FFFFFF" d="M177.353,61.578c0,3.563-2.825,5.966-7.18,5.966c-3.669,0-7.286-1.267-7.312-5.464h2.296
		c0,2.692,2.825,3.3,4.963,3.3c2.93,0,4.937-1.426,4.937-3.775c0-2.164-1.61-3.643-4.726-3.643h-7.127v-9.055h13.093v2.112h-10.85
		v4.777h4.883C174.819,55.797,177.353,58.041,177.353,61.578z"/>
	<path fill="#FFFFFF" d="M195.035,56.299v3.695c0,10.216-14.941,10.242-14.941,0v-3.695
		C180.094,46.057,195.035,46.083,195.035,56.299z M192.739,59.968v-3.695c0-7.286-10.348-7.339-10.348,0.026v3.695
		C182.39,67.359,192.739,67.333,192.739,59.968z"/>
	<path fill="#FFFFFF" d="M208.836,47.271l-9.397,22.28h-2.244l9.372-22.28H208.836z"/>
	<path fill="#FFFFFF" d="M225.49,61.578c0,3.563-2.825,5.966-7.181,5.966c-3.669,0-7.285-1.267-7.312-5.464h2.296
		c0,2.692,2.825,3.3,4.962,3.3c2.931,0,4.937-1.426,4.937-3.775c0-2.164-1.61-3.643-4.726-3.643h-7.126v-9.055h13.093v2.112h-10.85
		v4.777h4.883C222.955,55.797,225.49,58.041,225.49,61.578z"/>
	<path fill="#FFFFFF" d="M243.171,56.299v3.695c0,10.216-14.94,10.242-14.94,0v-3.695C228.231,46.057,243.171,46.083,243.171,56.299
		z M240.875,59.968v-3.695c0-7.286-10.349-7.339-10.349,0.026v3.695C230.527,67.359,240.875,67.333,240.875,59.968z"/>
</g>
</svg>
