<?xml version="1.0" encoding="UTF-8"?>
<!-- Generator: Adobe Illustrator 17.0.0, SVG Export Plug-In . SVG Version: 6.00 Build 0)  -->
<!DOCTYPE svg PUBLIC "-//W3C//DTD SVG 1.1//EN" "http://www.w3.org/Graphics/SVG/1.1/DTD/svg11.dtd">
<svg version="1.1" id="Capa_1" xmlns="http://www.w3.org/2000/svg" xmlns:xlink="http://www.w3.org/1999/xlink" x="0px" y="0px" width="386.729px" height="151.799px" viewBox="-20 -9.769 386.729 151.799" enable-background="new -20 -9.769 386.729 151.799" xml:space="preserve">
<g>
	<g>
		<g>
			<path fill="#FFFFFF" d="M151.321,59.739c-0.775,0-1.403-0.629-1.403-1.403V12.422c0-5.416,4.156-9.822,9.269-9.822     s9.269,4.406,9.269,9.822v29.85c0,0.775-0.629,1.403-1.403,1.403s-1.403-0.629-1.403-1.403v-29.85     c0-3.867-2.899-7.016-6.463-7.016c-3.564,0-6.463,3.149-6.463,7.016v45.914C152.724,59.111,152.095,59.739,151.321,59.739z"/>
			<path fill="#FFFFFF" d="M157.397,88.06c-0.359,0-0.718-0.137-0.993-0.41l-20.8-20.8c-4.925-4.922-5.991-11.868-2.377-15.482     c3.615-3.617,9.586-3.522,13.316,0.208l5.77,5.77c0.547,0.547,0.547,1.437,0,1.984s-1.437,0.547-1.984,0l-5.77-5.77     c-2.635-2.632-6.828-2.728-9.348-0.208c-2.478,2.478-1.389,7.751,2.377,11.514l20.8,20.8c0.547,0.547,0.547,1.437,0,1.984     C158.115,87.923,157.756,88.06,157.397,88.06z"/>
			<path fill="#FFFFFF" d="M182.785,45.281c-0.775,0-1.403-0.629-1.403-1.403v-7.075c0-3.129-2.899-5.672-6.463-5.672     c-3.567,0-6.466,2.545-6.466,5.672v7.075c0,0.775-0.629,1.403-1.403,1.403s-1.403-0.629-1.403-1.403v-7.075     c0-4.675,4.159-8.478,9.272-8.478s9.269,3.803,9.269,8.478v7.075C184.188,44.653,183.56,45.281,182.785,45.281z"/>
			<path fill="#FFFFFF" d="M198.511,45.281c-0.775,0-1.403-0.629-1.403-1.403v-5.904c0-2.441-2.958-4.501-6.46-4.501     c-3.502,0-6.463,2.063-6.463,4.501v5.904c0,0.775-0.629,1.403-1.403,1.403s-1.403-0.629-1.403-1.403v-5.904     c0-4.03,4.156-7.308,9.269-7.308c5.107,0,9.266,3.278,9.266,7.308v5.904C199.915,44.653,199.289,45.281,198.511,45.281z"/>
			<path fill="#FFFFFF" d="M214.243,63.292c-0.775,0-1.403-0.629-1.403-1.403V42.59c0-3.867-2.899-7.016-6.463-7.016     c-3.808,0-6.463,1.818-6.463,3.449v4.852c0,0.775-0.629,1.403-1.403,1.403s-1.403-0.629-1.403-1.403v-4.852     c0-3.508,4.072-6.255,9.269-6.255c5.11,0,9.269,4.406,9.269,9.822v19.299C215.647,62.664,215.018,63.292,214.243,63.292z"/>
			<path fill="#FFFFFF" d="M203.018,88.049h-45.512c-0.775,0-1.456-0.629-1.456-1.403s0.578-1.403,1.353-1.403h45.613     c5.416,0,9.822-4.406,9.822-9.822V60.275c0-0.775,0.629-1.403,1.403-1.403s1.403,0.629,1.403,1.403v15.143     C215.647,82.383,209.981,88.049,203.018,88.049z"/>
		</g>
		<path fill="#FFFFFF" d="M178.129,13.655c-0.775,0-1.403-0.629-1.403-1.403v-1.675c0-9.67-7.869-17.539-17.539-17.539    s-17.539,7.869-17.539,17.539v1.675c0,0.775-0.629,1.403-1.403,1.403s-1.403-0.629-1.403-1.403v-1.675    c0-11.22,9.126-20.346,20.346-20.346s20.346,9.126,20.346,20.346v1.675C179.533,13.029,178.904,13.655,178.129,13.655z"/>
	</g>
	<g>
		<rect x="-20" y="123.525" fill="#20DBD5" width="67.834" height="18.505"/>
		<rect x="59.632" y="123.525" opacity="0.4" fill="#20DBD5" enable-background="new    " width="67.834" height="18.505"/>
		<rect x="139.263" y="123.525" fill="#999999" enable-background="new    " width="67.834" height="18.505"/>
		<rect x="218.895" y="123.525" opacity="0.4" fill="#FC2557" enable-background="new    " width="67.834" height="18.505"/>
		<rect x="298.895" y="123.525" fill="#FC2557" width="67.834" height="18.505"/>
	</g>
</g>
</svg>