<?xml version="1.0" encoding="UTF-8"?>
<!-- Generator: Adobe Illustrator 17.0.0, SVG Export Plug-In . SVG Version: 6.00 Build 0)  -->
<!DOCTYPE svg PUBLIC "-//W3C//DTD SVG 1.1//EN" "http://www.w3.org/Graphics/SVG/1.1/DTD/svg11.dtd">
<svg version="1.1" id="Layer_1" xmlns="http://www.w3.org/2000/svg" xmlns:xlink="http://www.w3.org/1999/xlink" x="0px" y="0px" width="390.101px" height="409.61px" viewBox="0 0 390.101 409.61" enable-background="new 0 0 390.101 409.61" xml:space="preserve">
<g>
	<path fill="none" stroke="#FFFFFF" stroke-width="10" stroke-linecap="round" stroke-miterlimit="10" d="M214.169,226.019"/>
	<path fill="none" stroke="#FFFFFF" stroke-width="10" stroke-linecap="round" stroke-miterlimit="10" d="M180.167,226.019"/>
</g>
<g>
	<path fill="#6D20C6" d="M71.185,186.198c0,38.139,30.918,69.056,69.056,69.056h110.547c38.139,0,69.056-30.918,69.056-69.056   V75.651c0-38.139-30.918-69.056-69.056-69.056H140.241c-38.139,0-69.056,30.918-69.056,69.056V186.198z"/>
	<path fill="#FFFFFF" d="M196.964,211.291h-0.2c-18.352,0-33.282-14.929-33.282-33.281c0-16.775,4.339-29.594,26.357-47.246   l-0.15-0.107l0.078-0.059l-0.079-0.059l0.162-0.116c-21.861-17.578-26.17-30.361-26.17-47.094   c0-18.261,14.833-33.172,33.082-33.281v0l0.2,0.001c18.265,0.123,33.082,15.029,33.082,33.281   c-0.001,16.734-4.309,29.516-26.17,47.094l0.124,0.088l-0.079,0.06l0.072,0.054l-0.072,0.053l0.001,0.001l-0.072,0.053   c22.055,17.669,26.397,30.492,26.397,47.277C230.246,196.361,215.315,211.291,196.964,211.291z M196.864,135.966   c-23.059,17.998-24.945,29.281-24.945,42.044c0,13.699,11.146,24.845,24.846,24.845h0.2c13.7,0,24.846-11.146,24.846-24.845   C221.81,165.247,219.924,153.964,196.864,135.966z M196.85,58.483c-13.624,0.046-24.732,11.192-24.732,24.845   c0,12.729,1.871,23.978,24.746,41.887c22.874-17.908,24.745-29.158,24.746-41.887C221.61,69.675,210.503,58.529,196.85,58.483z"/>
	<path fill="#21DBD6" d="M255.175,194.417c-2.33,0-4.218-1.888-4.218-4.218v-10.502c0-15.547,0-26.78-25.442-45.437l-4.638-3.401   l4.638-3.402c25.243-18.511,25.243-26.508,25.243-42.441V73.67c0-2.329,1.888-4.218,4.218-4.218s4.218,1.889,4.218,4.218v11.346   c0,16.049,0.001,26.951-24.207,45.855c24.404,19.35,24.407,33.073,24.407,48.826v10.502   C259.393,192.529,257.505,194.417,255.175,194.417z"/>
	<path fill="#21DBD6" d="M137.331,194.417c-2.329,0-4.218-1.888-4.218-4.218v-10.502c0-15.753-0.002-29.474,24.407-48.826   c-24.208-18.904-24.207-29.806-24.207-45.855V73.67c0-2.329,1.889-4.218,4.218-4.218c2.329,0,4.218,1.889,4.218,4.218v11.346   c0,15.933,0,23.93,25.243,42.441l4.638,3.402l-4.639,3.401c-25.442,18.657-25.442,29.89-25.442,45.437v10.502   C141.549,192.529,139.66,194.417,137.331,194.417z"/>
</g>
<g>
	<path fill="#FFFFFF" d="M44.023,378.674c-2.757,1.379-8.271,2.757-15.335,2.757C12.319,381.431,0,371.093,0,352.054   c0-18.179,12.319-30.498,30.325-30.498c7.237,0,11.803,1.551,13.784,2.585l-1.809,6.116c-2.843-1.378-6.892-2.412-11.717-2.412   c-13.612,0-22.658,8.701-22.658,23.95c0,14.215,8.185,23.347,22.313,23.347c4.566,0,9.218-0.947,12.233-2.412L44.023,378.674z"/>
	<path fill="#FFFFFF" d="M89.944,359.377c0,15.421-10.683,22.141-20.763,22.141c-11.286,0-19.987-8.271-19.987-21.451   c0-13.957,9.132-22.141,20.676-22.141C81.845,337.925,89.944,346.627,89.944,359.377z M56.862,359.807   c0,9.132,5.255,16.024,12.664,16.024c7.237,0,12.664-6.806,12.664-16.196c0-7.064-3.532-16.024-12.492-16.024   C60.738,343.611,56.862,351.881,56.862,359.807z"/>
	<path fill="#FFFFFF" d="M99.508,319.403h7.581v61.167h-7.581V319.403z"/>
	<path fill="#FFFFFF" d="M157.574,359.377c0,15.421-10.683,22.141-20.763,22.141c-11.286,0-19.987-8.271-19.987-21.451   c0-13.957,9.132-22.141,20.676-22.141C149.475,337.925,157.574,346.627,157.574,359.377z M124.492,359.807   c0,9.132,5.255,16.024,12.664,16.024c7.237,0,12.664-6.806,12.664-16.196c0-7.064-3.532-16.024-12.492-16.024   C128.368,343.611,124.492,351.881,124.492,359.807z"/>
	<path fill="#FFFFFF" d="M167.138,350.159c0-4.308-0.086-7.84-0.345-11.286h6.72l0.431,6.893h0.172   c2.068-3.963,6.892-7.84,13.784-7.84c5.772,0,14.732,3.445,14.732,17.747v24.897h-7.581v-24.036c0-6.72-2.499-12.319-9.649-12.319   c-4.997,0-8.874,3.532-10.166,7.753c-0.345,0.948-0.517,2.24-0.517,3.532v25.07h-7.581V350.159z"/>
	<path fill="#FFFFFF" d="M216.59,338.873l9.132,24.64c0.948,2.757,1.981,6.03,2.671,8.528h0.172   c0.775-2.498,1.638-5.686,2.671-8.701l8.271-24.467h8.013l-11.372,29.723c-5.428,14.301-9.133,21.623-14.302,26.104   c-3.704,3.273-7.408,4.565-9.304,4.91l-1.896-6.375c1.896-0.603,4.394-1.809,6.634-3.704c2.067-1.637,4.652-4.566,6.375-8.443   c0.345-0.775,0.603-1.378,0.603-1.809s-0.172-1.034-0.517-1.981l-15.421-38.424H216.59z"/>
	<path fill="#FFFFFF" d="M262.078,360.238l-7.15,20.332h-4.221l21.021-58.065h3.963l20.935,58.065h-4.222l-7.322-20.332H262.078z    M283.789,356.793l-7.064-19.385c-1.379-4.049-2.154-6.978-3.016-10.252h-0.172c-0.862,3.36-1.81,6.376-3.016,10.08l-7.15,19.557   H283.789z"/>
	<path fill="#FFFFFF" d="M305.413,352.398c0-5.169-0.086-9.218-0.344-13.181h3.963l0.258,7.84h0.173   c3.015-5.428,8.098-8.787,15.335-8.787c10.597,0,17.747,8.787,17.747,20.935c0,14.731-8.788,22.312-18.781,22.312   c-5.944,0-11.199-2.67-14.043-7.667h-0.172v23.777h-4.136V352.398z M309.549,364.288c0,1.12,0.086,2.239,0.345,3.273   c1.723,6.375,7.236,10.511,13.611,10.511c9.477,0,14.904-7.668,14.904-18.695c0-9.304-5.169-17.661-14.56-17.661   c-6.03,0-11.889,4.136-13.697,10.941c-0.259,1.12-0.604,2.412-0.604,3.532V364.288z"/>
	<path fill="#FFFFFF" d="M352.97,352.398c0-5.169-0.087-9.218-0.345-13.181h3.963l0.258,7.84h0.173   c3.015-5.428,8.098-8.787,15.335-8.787c10.597,0,17.747,8.787,17.747,20.935c0,14.731-8.788,22.312-18.781,22.312   c-5.944,0-11.199-2.67-14.043-7.667h-0.172v23.777h-4.135V352.398z M357.104,364.288c0,1.12,0.086,2.239,0.345,3.273   c1.723,6.375,7.236,10.511,13.611,10.511c9.478,0,14.904-7.668,14.904-18.695c0-9.304-5.169-17.661-14.56-17.661   c-6.03,0-11.889,4.136-13.697,10.941c-0.259,1.12-0.604,2.412-0.604,3.532V364.288z"/>
</g>
</svg>